<svg width="1291" height="88" viewBox="0 0 1291 88" fill="none" xmlns="http://www.w3.org/2000/svg">
<rect width="1290" height="88" transform="translate(0.998535)" fill="#161B21"/>
<path d="M13.9009 41.8867V44.6289H4.99463V41.8867H13.9009ZM6.0376 34.9375V52H2.52197V34.9375H6.0376ZM16.4087 34.9375V52H12.9048V34.9375H16.4087ZM18.7173 45.7891V45.543C18.7173 44.6133 18.8501 43.7578 19.1157 42.9766C19.3813 42.1875 19.7681 41.5039 20.2759 40.9258C20.7837 40.3477 21.4087 39.8984 22.1509 39.5781C22.8931 39.25 23.7446 39.0859 24.7056 39.0859C25.6665 39.0859 26.522 39.25 27.272 39.5781C28.022 39.8984 28.6509 40.3477 29.1587 40.9258C29.6743 41.5039 30.0649 42.1875 30.3306 42.9766C30.5962 43.7578 30.729 44.6133 30.729 45.543V45.7891C30.729 46.7109 30.5962 47.5664 30.3306 48.3555C30.0649 49.1367 29.6743 49.8203 29.1587 50.4062C28.6509 50.9844 28.0259 51.4336 27.2837 51.7539C26.5415 52.0742 25.6899 52.2344 24.729 52.2344C23.7681 52.2344 22.9126 52.0742 22.1626 51.7539C21.4204 51.4336 20.7915 50.9844 20.2759 50.4062C19.7681 49.8203 19.3813 49.1367 19.1157 48.3555C18.8501 47.5664 18.7173 46.7109 18.7173 45.7891ZM22.0923 45.543V45.7891C22.0923 46.3203 22.1392 46.8164 22.2329 47.2773C22.3267 47.7383 22.4751 48.1445 22.6782 48.4961C22.8892 48.8398 23.1626 49.1094 23.4985 49.3047C23.8345 49.5 24.2446 49.5977 24.729 49.5977C25.1978 49.5977 25.6001 49.5 25.936 49.3047C26.272 49.1094 26.5415 48.8398 26.7446 48.4961C26.9478 48.1445 27.0962 47.7383 27.1899 47.2773C27.2915 46.8164 27.3423 46.3203 27.3423 45.7891V45.543C27.3423 45.0273 27.2915 44.543 27.1899 44.0898C27.0962 43.6289 26.9439 43.2227 26.7329 42.8711C26.5298 42.5117 26.2603 42.2305 25.9243 42.0273C25.5884 41.8242 25.1821 41.7227 24.7056 41.7227C24.229 41.7227 23.8228 41.8242 23.4868 42.0273C23.1587 42.2305 22.8892 42.5117 22.6782 42.8711C22.4751 43.2227 22.3267 43.6289 22.2329 44.0898C22.1392 44.543 22.0923 45.0273 22.0923 45.543ZM36.1782 41.9453V52H32.7915V39.3203H35.9673L36.1782 41.9453ZM35.7095 45.2148H34.772C34.772 44.332 34.8774 43.5195 35.0884 42.7773C35.3071 42.0273 35.6235 41.3789 36.0376 40.832C36.4595 40.2773 36.979 39.8477 37.5962 39.543C38.2134 39.2383 38.9282 39.0859 39.7407 39.0859C40.3032 39.0859 40.8189 39.1719 41.2876 39.3437C41.7564 39.5078 42.1587 39.7695 42.4946 40.1289C42.8384 40.4805 43.104 40.9414 43.2915 41.5117C43.479 42.0742 43.5728 42.75 43.5728 43.5391V52H40.1978V43.9141C40.1978 43.3359 40.1196 42.8906 39.9634 42.5781C39.8071 42.2656 39.5845 42.0469 39.2954 41.9219C39.0142 41.7969 38.6743 41.7344 38.2759 41.7344C37.8384 41.7344 37.4556 41.8242 37.1274 42.0039C36.8071 42.1836 36.5415 42.4336 36.3306 42.7539C36.1196 43.0664 35.9634 43.4336 35.8618 43.8555C35.7603 44.2773 35.7095 44.7305 35.7095 45.2148ZM43.2564 44.8281L42.0493 44.9805C42.0493 44.1523 42.1509 43.3828 42.354 42.6719C42.5649 41.9609 42.8735 41.3359 43.2798 40.7969C43.6939 40.2578 44.2056 39.8398 44.8149 39.543C45.4243 39.2383 46.1274 39.0859 46.9243 39.0859C47.5337 39.0859 48.0884 39.1758 48.5884 39.3555C49.0884 39.5273 49.5142 39.8047 49.8657 40.1875C50.2251 40.5625 50.4985 41.0547 50.686 41.6641C50.8814 42.2734 50.979 43.0195 50.979 43.9023V52H47.5923V43.9023C47.5923 43.3164 47.5142 42.8711 47.3579 42.5664C47.2095 42.2539 46.9907 42.0391 46.7017 41.9219C46.4204 41.7969 46.0845 41.7344 45.6939 41.7344C45.2876 41.7344 44.9321 41.8164 44.6274 41.9805C44.3228 42.1367 44.0689 42.3555 43.8657 42.6367C43.6626 42.918 43.5103 43.2461 43.4087 43.6211C43.3071 43.9883 43.2564 44.3906 43.2564 44.8281ZM59.4282 52.2344C58.4439 52.2344 57.561 52.0781 56.7798 51.7656C55.9985 51.4453 55.3345 51.0039 54.7876 50.4414C54.2485 49.8789 53.8345 49.2266 53.5454 48.4844C53.2564 47.7344 53.1118 46.9375 53.1118 46.0937V45.625C53.1118 44.6641 53.2485 43.7852 53.522 42.9883C53.7954 42.1914 54.186 41.5 54.6939 40.9141C55.2095 40.3281 55.8345 39.8789 56.5689 39.5664C57.3032 39.2461 58.1314 39.0859 59.0532 39.0859C59.9517 39.0859 60.7485 39.2344 61.4439 39.5312C62.1392 39.8281 62.7212 40.25 63.1899 40.7969C63.6665 41.3437 64.0259 42 64.2681 42.7656C64.5103 43.5234 64.6314 44.3672 64.6314 45.2969V46.7031H54.5532V44.4531H61.3149V44.1953C61.3149 43.7266 61.229 43.3086 61.0571 42.9414C60.8931 42.5664 60.6431 42.2695 60.3071 42.0508C59.9712 41.832 59.5415 41.7227 59.0181 41.7227C58.5728 41.7227 58.1899 41.8203 57.8696 42.0156C57.5493 42.2109 57.2876 42.4844 57.0845 42.8359C56.8892 43.1875 56.7407 43.6016 56.6392 44.0781C56.5454 44.5469 56.4985 45.0625 56.4985 45.625V46.0937C56.4985 46.6016 56.5689 47.0703 56.7095 47.5C56.8579 47.9297 57.0649 48.3008 57.3306 48.6133C57.604 48.9258 57.9321 49.168 58.3149 49.3398C58.7056 49.5117 59.147 49.5977 59.6392 49.5977C60.2485 49.5977 60.8149 49.4805 61.3384 49.2461C61.8696 49.0039 62.3267 48.6406 62.7095 48.1562L64.3501 49.9375C64.0845 50.3203 63.7212 50.6875 63.2603 51.0391C62.8071 51.3906 62.2603 51.6797 61.6196 51.9062C60.979 52.125 60.2485 52.2344 59.4282 52.2344Z" fill="#EEF0F4"/>
<path d="M1218.31 46.0625L1220.57 38.125H1221.66L1221.03 41.2109L1218.6 49.5H1217.51L1218.31 46.0625ZM1215.98 38.125L1217.77 45.9063L1218.31 49.5H1217.23L1214.48 38.125H1215.98ZM1224.58 45.8984L1226.34 38.125H1227.85L1225.1 49.5H1224.02L1224.58 45.8984ZM1221.83 38.125L1224.02 46.0625L1224.82 49.5H1223.73L1221.39 41.2109L1220.75 38.125H1221.83ZM1232.56 49.6562C1231.97 49.6562 1231.44 49.5573 1230.96 49.3594C1230.49 49.1563 1230.08 48.8724 1229.73 48.5078C1229.39 48.1432 1229.13 47.7109 1228.95 47.2109C1228.77 46.7109 1228.68 46.1641 1228.68 45.5703V45.2422C1228.68 44.5547 1228.78 43.9427 1228.98 43.4063C1229.19 42.8646 1229.46 42.4063 1229.81 42.0313C1230.16 41.6563 1230.56 41.3724 1231 41.1797C1231.44 40.987 1231.9 40.8906 1232.37 40.8906C1232.98 40.8906 1233.5 40.9948 1233.94 41.2031C1234.38 41.4115 1234.74 41.7031 1235.02 42.0781C1235.3 42.4479 1235.51 42.8854 1235.65 43.3906C1235.78 43.8906 1235.85 44.4375 1235.85 45.0313V45.6797H1229.54V44.5H1234.4V44.3906C1234.38 44.0156 1234.31 43.651 1234.17 43.2969C1234.04 42.9427 1233.83 42.651 1233.55 42.4219C1233.26 42.1927 1232.87 42.0781 1232.37 42.0781C1232.05 42.0781 1231.74 42.1484 1231.47 42.2891C1231.19 42.4245 1230.95 42.6276 1230.76 42.8984C1230.56 43.1693 1230.4 43.5 1230.3 43.8906C1230.19 44.2813 1230.13 44.7318 1230.13 45.2422V45.5703C1230.13 45.9714 1230.19 46.349 1230.3 46.7031C1230.41 47.0521 1230.57 47.3594 1230.79 47.625C1231.01 47.8906 1231.27 48.099 1231.58 48.25C1231.89 48.401 1232.24 48.4766 1232.64 48.4766C1233.15 48.4766 1233.58 48.3724 1233.94 48.1641C1234.29 47.9557 1234.6 47.6771 1234.87 47.3281L1235.74 48.0234C1235.56 48.2995 1235.33 48.5625 1235.05 48.8125C1234.76 49.0625 1234.42 49.2656 1234.01 49.4219C1233.6 49.5781 1233.12 49.6562 1232.56 49.6562ZM1237.53 37.5H1238.98V47.8594L1238.86 49.5H1237.53V37.5ZM1244.69 45.2031V45.3672C1244.69 45.9818 1244.62 46.5521 1244.48 47.0781C1244.33 47.599 1244.12 48.0521 1243.83 48.4375C1243.55 48.8229 1243.21 49.1224 1242.8 49.3359C1242.4 49.5495 1241.93 49.6562 1241.4 49.6562C1240.87 49.6562 1240.4 49.5651 1239.99 49.3828C1239.59 49.1953 1239.25 48.9271 1238.98 48.5781C1238.7 48.2292 1238.48 47.8073 1238.31 47.3125C1238.15 46.8177 1238.04 46.2604 1237.98 45.6406V44.9219C1238.04 44.2969 1238.15 43.737 1238.31 43.2422C1238.48 42.7474 1238.7 42.3255 1238.98 41.9766C1239.25 41.6224 1239.59 41.3542 1239.99 41.1719C1240.39 40.9844 1240.86 40.8906 1241.39 40.8906C1241.92 40.8906 1242.39 40.9948 1242.8 41.2031C1243.21 41.4063 1243.56 41.6979 1243.83 42.0781C1244.12 42.4583 1244.33 42.9141 1244.48 43.4453C1244.62 43.9714 1244.69 44.5573 1244.69 45.2031ZM1243.24 45.3672V45.2031C1243.24 44.7813 1243.2 44.3854 1243.12 44.0156C1243.05 43.6406 1242.92 43.3125 1242.75 43.0313C1242.58 42.7448 1242.35 42.5208 1242.07 42.3594C1241.79 42.1927 1241.44 42.1094 1241.03 42.1094C1240.67 42.1094 1240.35 42.1719 1240.08 42.2969C1239.81 42.4219 1239.58 42.5911 1239.4 42.8047C1239.21 43.013 1239.06 43.2526 1238.94 43.5234C1238.82 43.7891 1238.74 44.0651 1238.68 44.3516V46.2344C1238.76 46.599 1238.9 46.9505 1239.08 47.2891C1239.28 47.6224 1239.53 47.8958 1239.85 48.1094C1240.17 48.3229 1240.57 48.4297 1241.05 48.4297C1241.44 48.4297 1241.77 48.3516 1242.05 48.1953C1242.33 48.0339 1242.55 47.8125 1242.73 47.5313C1242.9 47.25 1243.03 46.9245 1243.12 46.5547C1243.2 46.1849 1243.24 45.7891 1243.24 45.3672ZM1256.77 46.625C1256.77 46.3594 1256.73 46.125 1256.65 45.9219C1256.57 45.7135 1256.43 45.526 1256.23 45.3594C1256.03 45.1927 1255.75 45.0339 1255.4 44.8828C1255.05 44.7318 1254.61 44.5781 1254.07 44.4219C1253.51 44.2552 1253 44.0703 1252.55 43.8672C1252.09 43.6589 1251.7 43.4219 1251.38 43.1563C1251.06 42.8906 1250.81 42.5859 1250.64 42.2422C1250.47 41.8984 1250.38 41.5052 1250.38 41.0625C1250.38 40.6198 1250.47 40.2109 1250.65 39.8359C1250.84 39.4609 1251.1 39.1354 1251.44 38.8594C1251.78 38.5781 1252.19 38.3594 1252.66 38.2031C1253.14 38.0469 1253.67 37.9688 1254.25 37.9688C1255.1 37.9688 1255.83 38.1328 1256.42 38.4609C1257.02 38.7839 1257.48 39.2083 1257.79 39.7344C1258.1 40.2552 1258.26 40.8125 1258.26 41.4063H1256.76C1256.76 40.9792 1256.67 40.6016 1256.48 40.2734C1256.3 39.9401 1256.02 39.6797 1255.65 39.4922C1255.28 39.2995 1254.82 39.2031 1254.25 39.2031C1253.71 39.2031 1253.27 39.2839 1252.92 39.4453C1252.57 39.6068 1252.31 39.8255 1252.14 40.1016C1251.97 40.3776 1251.89 40.6927 1251.89 41.0469C1251.89 41.2865 1251.94 41.5052 1252.04 41.7031C1252.14 41.8958 1252.3 42.0755 1252.51 42.2422C1252.73 42.4089 1253.01 42.5625 1253.34 42.7031C1253.68 42.8438 1254.08 42.9792 1254.55 43.1094C1255.2 43.2917 1255.76 43.4948 1256.23 43.7188C1256.69 43.9427 1257.08 44.1953 1257.38 44.4766C1257.69 44.7526 1257.92 45.0677 1258.06 45.4219C1258.21 45.7708 1258.29 46.1667 1258.29 46.6094C1258.29 47.0729 1258.19 47.4922 1258.01 47.8672C1257.82 48.2422 1257.55 48.5625 1257.2 48.8281C1256.85 49.0938 1256.43 49.2995 1255.94 49.4453C1255.46 49.5859 1254.92 49.6562 1254.32 49.6562C1253.79 49.6562 1253.27 49.5833 1252.76 49.4375C1252.26 49.2917 1251.8 49.0729 1251.38 48.7813C1250.97 48.4896 1250.64 48.1302 1250.39 47.7031C1250.14 47.2708 1250.02 46.7708 1250.02 46.2031H1251.52C1251.52 46.5938 1251.6 46.9297 1251.75 47.2109C1251.9 47.487 1252.11 47.7161 1252.37 47.8984C1252.63 48.0807 1252.93 48.2161 1253.26 48.3047C1253.6 48.388 1253.95 48.4297 1254.32 48.4297C1254.84 48.4297 1255.29 48.3568 1255.65 48.2109C1256.02 48.0651 1256.3 47.8568 1256.48 47.5859C1256.68 47.3151 1256.77 46.9948 1256.77 46.625ZM1263.5 49.6562C1262.91 49.6562 1262.38 49.5573 1261.9 49.3594C1261.42 49.1563 1261.01 48.8724 1260.67 48.5078C1260.33 48.1432 1260.07 47.7109 1259.89 47.2109C1259.71 46.7109 1259.62 46.1641 1259.62 45.5703V45.2422C1259.62 44.5547 1259.72 43.9427 1259.92 43.4063C1260.12 42.8646 1260.4 42.4063 1260.75 42.0313C1261.1 41.6563 1261.49 41.3724 1261.94 41.1797C1262.38 40.987 1262.84 40.8906 1263.31 40.8906C1263.92 40.8906 1264.44 40.9948 1264.87 41.2031C1265.32 41.4115 1265.68 41.7031 1265.96 42.0781C1266.24 42.4479 1266.45 42.8854 1266.58 43.3906C1266.72 43.8906 1266.79 44.4375 1266.79 45.0313V45.6797H1260.48V44.5H1265.34V44.3906C1265.32 44.0156 1265.24 43.651 1265.11 43.2969C1264.98 42.9427 1264.77 42.651 1264.48 42.4219C1264.2 42.1927 1263.81 42.0781 1263.31 42.0781C1262.98 42.0781 1262.68 42.1484 1262.4 42.2891C1262.13 42.4245 1261.89 42.6276 1261.69 42.8984C1261.5 43.1693 1261.34 43.5 1261.23 43.8906C1261.12 44.2813 1261.07 44.7318 1261.07 45.2422V45.5703C1261.07 45.9714 1261.12 46.349 1261.23 46.7031C1261.35 47.0521 1261.51 47.3594 1261.73 47.625C1261.94 47.8906 1262.21 48.099 1262.51 48.25C1262.83 48.401 1263.18 48.4766 1263.58 48.4766C1264.09 48.4766 1264.52 48.3724 1264.87 48.1641C1265.23 47.9557 1265.54 47.6771 1265.8 47.3281L1266.68 48.0234C1266.5 48.2995 1266.26 48.5625 1265.98 48.8125C1265.7 49.0625 1265.36 49.2656 1264.94 49.4219C1264.54 49.5781 1264.06 49.6562 1263.5 49.6562ZM1272.01 41.0469V42.1563H1267.44V41.0469H1272.01ZM1268.99 38.9922H1270.44V47.4063C1270.44 47.6927 1270.48 47.9089 1270.57 48.0547C1270.66 48.2005 1270.77 48.2969 1270.91 48.3438C1271.05 48.3906 1271.2 48.4141 1271.37 48.4141C1271.49 48.4141 1271.61 48.4036 1271.74 48.3828C1271.88 48.3568 1271.98 48.3359 1272.05 48.3203L1272.05 49.5C1271.94 49.5365 1271.79 49.5703 1271.6 49.6016C1271.42 49.638 1271.2 49.6562 1270.94 49.6562C1270.58 49.6562 1270.26 49.5859 1269.96 49.4453C1269.66 49.3047 1269.43 49.0703 1269.25 48.7422C1269.08 48.4089 1268.99 47.9609 1268.99 47.3984V38.9922ZM1278.88 47.5469V41.0469H1280.33V49.5H1278.95L1278.88 47.5469ZM1279.15 45.7656L1279.76 45.75C1279.76 46.3125 1279.7 46.8333 1279.58 47.3125C1279.46 47.7865 1279.27 48.1979 1279.01 48.5469C1278.75 48.8958 1278.41 49.1693 1277.99 49.3672C1277.57 49.5599 1277.06 49.6562 1276.45 49.6562C1276.04 49.6562 1275.66 49.5964 1275.32 49.4766C1274.98 49.3568 1274.69 49.1719 1274.44 48.9219C1274.2 48.6719 1274.01 48.3464 1273.87 47.9453C1273.74 47.5443 1273.68 47.0625 1273.68 46.5V41.0469H1275.12V46.5156C1275.12 46.8958 1275.17 47.2109 1275.25 47.4609C1275.34 47.7057 1275.45 47.901 1275.6 48.0469C1275.75 48.1875 1275.92 48.2865 1276.1 48.3438C1276.29 48.401 1276.48 48.4297 1276.68 48.4297C1277.29 48.4297 1277.78 48.3125 1278.14 48.0781C1278.5 47.8385 1278.76 47.5182 1278.91 47.1172C1279.07 46.7109 1279.15 46.2604 1279.15 45.7656ZM1283.98 42.6719V52.75H1282.53V41.0469H1283.86L1283.98 42.6719ZM1289.68 45.2031V45.3672C1289.68 45.9818 1289.61 46.5521 1289.46 47.0781C1289.31 47.599 1289.1 48.0521 1288.82 48.4375C1288.54 48.8229 1288.2 49.1224 1287.8 49.3359C1287.39 49.5495 1286.92 49.6562 1286.4 49.6562C1285.86 49.6562 1285.39 49.5677 1284.98 49.3906C1284.56 49.2135 1284.21 48.9557 1283.93 48.6172C1283.64 48.2786 1283.41 47.8724 1283.24 47.3984C1283.07 46.9245 1282.96 46.3906 1282.9 45.7969V44.9219C1282.96 44.2969 1283.08 43.737 1283.25 43.2422C1283.42 42.7474 1283.65 42.3255 1283.93 41.9766C1284.21 41.6224 1284.56 41.3542 1284.97 41.1719C1285.37 40.9844 1285.84 40.8906 1286.37 40.8906C1286.9 40.8906 1287.38 40.9948 1287.79 41.2031C1288.2 41.4063 1288.55 41.6979 1288.83 42.0781C1289.11 42.4583 1289.32 42.9141 1289.46 43.4453C1289.61 43.9714 1289.68 44.5573 1289.68 45.2031ZM1288.23 45.3672V45.2031C1288.23 44.7813 1288.18 44.3854 1288.09 44.0156C1288 43.6406 1287.87 43.3125 1287.68 43.0313C1287.5 42.7448 1287.26 42.5208 1286.98 42.3594C1286.69 42.1927 1286.35 42.1094 1285.95 42.1094C1285.59 42.1094 1285.27 42.1719 1285 42.2969C1284.73 42.4219 1284.51 42.5911 1284.32 42.8047C1284.13 43.013 1283.98 43.2526 1283.86 43.5234C1283.74 43.7891 1283.66 44.0651 1283.6 44.3516V46.375C1283.7 46.7396 1283.85 47.0833 1284.04 47.4063C1284.23 47.724 1284.48 47.9818 1284.79 48.1797C1285.1 48.3724 1285.49 48.4688 1285.97 48.4688C1286.36 48.4688 1286.69 48.388 1286.98 48.2266C1287.26 48.0599 1287.5 47.8333 1287.68 47.5469C1287.87 47.2604 1288 46.9323 1288.09 46.5625C1288.18 46.1875 1288.23 45.7891 1288.23 45.3672Z" fill="#7DC1FF"/>
</svg>
